<svg width="446" height="121" viewBox="0 0 446 121" fill="none" xmlns="http://www.w3.org/2000/svg">
<path d="M3.07199 96.64C1.40799 96.64 0.639988 95.104 0.639988 94.208C0.639988 89.472 6.27199 93.44 6.27199 82.816V49.536C6.27199 41.728 -1.14441e-05 46.336 -1.14441e-05 41.728C-1.14441e-05 40.064 1.91999 39.04 6.91199 35.968C11.008 33.536 12.416 32.768 13.824 32.768C15.616 32.768 16.128 34.688 16.128 36.992V82.816C16.128 93.44 21.632 89.472 21.632 94.208C21.632 95.232 20.992 96.64 19.456 96.64C17.408 96.64 14.848 96.256 11.136 96.256C7.55199 96.256 5.11999 96.64 3.07199 96.64ZM3.07199 11.904C3.07199 7.296 7.03999 2.17599 12.032 2.17599C14.848 2.17599 17.408 4.224 17.408 8.192C17.408 12.8 13.44 17.92 8.44799 17.92C5.63199 17.92 3.07199 15.872 3.07199 11.904ZM63.432 97.408C59.08 97.408 55.368 94.976 53.832 87.68C50.376 93.824 44.488 97.792 37.704 97.792C28.232 97.792 22.088 89.984 22.088 78.976C22.088 67.84 29 58.88 40.52 58.88C44.616 58.88 48.072 60.032 51.016 61.44L50.888 59.648C49.48 46.464 46.92 40.448 40.52 40.448C36.552 40.448 32.968 43.648 29.768 48.128C29 49.152 28.104 49.536 27.336 49.536C26.44 49.536 25.16 48.768 25.16 47.36C25.16 46.208 25.8 44.928 26.824 43.264C30.408 37.376 36.68 32.384 43.592 32.384C55.752 32.384 58.824 43.904 60.232 56.448L62.536 78.08C63.56 88.192 65.352 88.576 70.088 89.728C71.112 89.984 71.624 90.752 71.624 91.776C71.624 94.08 68.04 97.408 63.432 97.408ZM32.456 77.952C32.456 85.248 35.912 90.752 41.288 90.752C46.152 90.752 50.76 85.632 52.936 80.256L51.656 67.456C48.84 65.664 45.896 64.896 43.08 64.896C36.296 64.896 32.456 70.144 32.456 77.952ZM129.887 96.64C128.095 96.64 126.943 95.616 126.943 94.08C126.943 89.6 132.831 93.056 132.831 84.864C132.831 83.968 132.703 82.176 132.575 80.896L130.271 58.24C129.503 51.072 128.607 40.96 122.079 40.96C117.343 40.96 112.735 46.72 112.735 59.008V82.816C112.735 93.44 118.623 89.472 118.623 94.208C118.623 95.232 117.855 96.64 116.319 96.64C114.143 96.64 111.711 96.256 107.871 96.256C104.287 96.256 101.855 96.64 99.935 96.64C98.271 96.64 97.375 95.232 97.375 94.208C97.375 89.472 102.879 93.44 102.879 82.816V58.752C102.879 51.584 101.727 40.96 95.071 40.96C90.207 40.96 84.703 47.104 84.703 60.032V82.816C84.703 93.44 90.207 89.472 90.207 94.208C90.207 95.232 89.567 96.64 88.031 96.64C85.983 96.64 83.423 96.256 79.711 96.256C76.127 96.256 73.823 96.64 71.647 96.64C69.983 96.64 69.215 95.232 69.215 94.208C69.215 89.472 74.847 93.44 74.847 82.816V49.536C74.847 41.728 68.575 46.336 68.575 41.728C68.575 39.808 70.367 38.912 75.487 36.096C80.223 33.408 81.503 32.768 82.399 32.768C84.319 32.768 84.703 34.944 84.703 36.992V44.672C87.519 38.016 92.639 32.256 99.167 32.256C106.079 32.256 109.791 38.144 111.455 45.184C113.887 38.016 118.495 32.256 125.663 32.256C136.415 32.256 138.463 44.8 139.871 57.6L142.431 81.664C143.711 93.824 148.959 89.344 148.959 94.336C148.959 95.872 147.679 96.64 146.143 96.64C143.711 96.64 141.919 96.256 137.951 96.256C133.727 96.256 132.319 96.64 129.887 96.64ZM154.727 98.176C153.063 98.176 152.167 96.128 151.655 94.464L148.839 86.528C147.047 81.664 146.407 79.872 146.407 78.464C146.407 76.928 147.559 76.032 148.711 76.032C150.119 76.032 151.015 77.056 152.039 78.464C157.543 86.528 163.431 91.776 170.087 91.776C175.719 91.776 179.559 87.936 179.559 82.56C179.559 75.904 175.463 72.832 166.375 68.096C157.799 63.616 148.327 58.752 148.327 47.872C148.327 39.168 154.727 32.256 163.815 32.256C169.447 32.256 172.775 34.432 173.927 34.432C175.335 34.432 175.591 31.872 177.895 31.872C179.559 31.872 180.455 33.92 181.607 36.224L184.551 43.136C185.703 45.568 186.599 48.256 186.599 49.024C186.599 50.56 185.575 51.456 184.551 51.456C183.271 51.456 182.375 50.432 181.351 49.152C176.103 42.624 170.727 38.528 165.223 38.528C160.871 38.528 157.671 41.728 157.671 46.208C157.671 52.352 162.791 55.04 170.343 59.136C180.327 64.64 189.031 68.48 189.031 81.152C189.031 91.392 180.967 97.92 170.855 97.92C164.711 97.92 160.487 94.976 158.951 94.976C157.031 94.976 157.671 98.176 154.727 98.176ZM197.616 120.832C194.928 120.832 192.112 119.552 191.088 118.016C189.808 115.84 188.144 107.904 188.144 104.96C188.144 103.296 188.784 102.016 190.064 102.016C190.832 102.016 191.856 102.656 192.624 104.192C195.312 109.696 197.36 112.64 200.048 112.64C202.992 112.64 205.68 107.904 207.984 98.688L208.496 96.768L191.984 45.184C189.808 38.144 185.2 39.424 185.2 35.456C185.2 34.048 186.224 33.28 187.504 33.28C189.936 33.28 192.496 33.664 196.72 33.664C200.432 33.664 203.12 33.28 205.168 33.28C206.832 33.28 207.856 34.048 207.856 35.712C207.856 39.936 202.864 38.016 202.864 43.904C202.864 44.8 203.376 47.616 204.272 50.816L213.232 82.432L221.936 50.944C222.832 47.616 223.472 45.568 223.472 43.52C223.472 38.272 218.224 39.936 218.224 35.712C218.224 34.048 219.248 33.28 220.912 33.28C222.704 33.28 225.008 33.664 227.568 33.664C230 33.664 232.304 33.28 234.48 33.28C235.76 33.28 236.784 34.048 236.784 35.456C236.784 39.424 232.048 38.144 230 44.928L213.36 102.528C210.032 114.176 204.528 120.832 197.616 120.832ZM236.804 96.64C235.012 96.64 234.372 95.232 234.372 94.208C234.372 89.472 239.876 93.44 239.876 82.816V16.896C239.876 9.088 233.732 13.568 233.732 8.96C233.732 7.296 235.012 6.272 240.772 3.2C246.02 0.383995 246.532 0 247.556 0C249.348 0 249.732 1.92 249.732 4.224V82.816C249.732 93.44 255.364 89.472 255.364 94.208C255.364 95.232 254.596 96.64 253.06 96.64C251.14 96.64 248.452 96.256 244.868 96.256C241.284 96.256 238.852 96.64 236.804 96.64ZM264.667 82.432C268.763 82.432 271.707 84.992 271.707 89.6C271.707 93.952 268.251 97.408 263.643 97.408C259.419 97.408 256.603 94.848 256.603 90.24C256.603 85.76 260.059 82.432 264.667 82.432ZM295.112 97.792C282.696 97.792 272.456 86.656 272.456 66.048C272.456 45.952 283.208 32.128 295.752 32.128C305.352 32.128 313.032 39.552 313.032 44.416C313.032 46.848 311.752 50.944 308.68 55.168C307.784 56.576 307.016 57.216 306.12 57.216C304.84 57.216 303.944 56.192 303.688 54.016C302.664 44.8 300.872 38.144 294.6 38.144C287.688 38.144 282.824 48 282.824 62.848C282.824 78.336 289.992 89.984 299.08 89.984C303.432 89.984 307.016 86.912 309.832 81.664C310.6 80.128 311.24 79.744 312.136 79.744C313.16 79.744 314.056 80.512 314.056 82.176C314.056 83.2 313.672 84.608 313.288 85.632C310.6 92.16 304.2 97.792 295.112 97.792ZM338.364 98.048C323.9 98.048 314.428 84.736 314.428 66.048C314.428 46.208 325.052 31.872 339.9 31.872C354.62 31.872 363.836 45.568 363.836 63.872C363.836 83.712 353.084 98.048 338.364 98.048ZM325.052 62.08C325.052 79.104 331.836 91.648 340.54 91.648C348.22 91.648 353.212 82.176 353.212 67.84C353.212 50.432 346.3 38.4 337.596 38.4C329.788 38.4 325.052 48.128 325.052 62.08ZM426.587 96.64C424.795 96.64 423.643 95.616 423.643 94.08C423.643 89.6 429.531 93.056 429.531 84.864C429.531 83.968 429.403 82.176 429.275 80.896L426.971 58.24C426.203 51.072 425.307 40.96 418.779 40.96C414.043 40.96 409.435 46.72 409.435 59.008V82.816C409.435 93.44 415.323 89.472 415.323 94.208C415.323 95.232 414.555 96.64 413.019 96.64C410.843 96.64 408.411 96.256 404.571 96.256C400.987 96.256 398.555 96.64 396.635 96.64C394.971 96.64 394.075 95.232 394.075 94.208C394.075 89.472 399.579 93.44 399.579 82.816V58.752C399.579 51.584 398.427 40.96 391.771 40.96C386.907 40.96 381.403 47.104 381.403 60.032V82.816C381.403 93.44 386.907 89.472 386.907 94.208C386.907 95.232 386.267 96.64 384.731 96.64C382.683 96.64 380.123 96.256 376.411 96.256C372.827 96.256 370.523 96.64 368.347 96.64C366.683 96.64 365.915 95.232 365.915 94.208C365.915 89.472 371.547 93.44 371.547 82.816V49.536C371.547 41.728 365.275 46.336 365.275 41.728C365.275 39.808 367.067 38.912 372.187 36.096C376.923 33.408 378.203 32.768 379.099 32.768C381.019 32.768 381.403 34.944 381.403 36.992V44.672C384.219 38.016 389.339 32.256 395.867 32.256C402.779 32.256 406.491 38.144 408.155 45.184C410.587 38.016 415.195 32.256 422.363 32.256C433.115 32.256 435.163 44.8 436.571 57.6L439.131 81.664C440.411 93.824 445.659 89.344 445.659 94.336C445.659 95.872 444.379 96.64 442.843 96.64C440.411 96.64 438.619 96.256 434.651 96.256C430.427 96.256 429.019 96.64 426.587 96.64Z" fill="#F6F6F0"/>
</svg>
